<svg width="96" height="96" viewBox="0 0 96 96" fill="none" xmlns="http://www.w3.org/2000/svg">
<rect width="96" height="96" fill="white"/>
<path d="M18.8335 76.5896V31.5897H32.1668V18.2563H63.8333V44.923H77.1667V76.5896H52.1668V63.2563H43.8333V76.5896H18.8335ZM23.8333 71.5897H32.1668V63.2563H23.8333V71.5897ZM23.8333 58.2563H32.1668V49.9229H23.8333V58.2563ZM23.8333 44.923H32.1668V36.5896H23.8333V44.923ZM37.1667 58.2563H45.5002V49.9229H37.1667V58.2563ZM37.1667 44.923H45.5002V36.5896H37.1667V44.923ZM37.1667 31.5897H45.5002V23.2563H37.1667V31.5897ZM50.5 58.2563H58.8335V49.9229H50.5V58.2563ZM50.5 44.923H58.8335V36.5896H50.5V44.923ZM50.5 31.5897H58.8335V23.2563H50.5V31.5897ZM63.8333 71.5897H72.1668V63.2563H63.8333V71.5897ZM63.8333 58.2563H72.1668V49.9229H63.8333V58.2563Z" fill="#27272A"/>
</svg>
