<svg width="96" height="96" viewBox="0 0 96 96" fill="none" xmlns="http://www.w3.org/2000/svg">
<rect width="96" height="96" fill="white"/>
<path d="M45.5003 73.2307V49.4357L24.6669 37.3717V60.5896C24.6669 60.7606 24.7097 60.9208 24.7952 61.0704C24.8806 61.22 25.0088 61.3482 25.1797 61.4551L45.5003 73.2307ZM50.5002 73.2307L70.8207 61.4551C70.9917 61.3482 71.1199 61.22 71.2053 61.0704C71.2908 60.9208 71.3336 60.7606 71.3336 60.5896V37.3717L50.5002 49.4357V73.2307ZM44.9874 78.6857L22.6798 65.846C21.7311 65.299 20.9918 64.5682 20.4619 63.6537C19.932 62.7392 19.667 61.7349 19.667 60.6409V35.3589C19.667 34.2649 19.932 33.2607 20.4619 32.3462C20.9918 31.4316 21.7311 30.7008 22.6798 30.1538L44.9874 17.3142C45.9361 16.7672 46.9404 16.4937 48.0002 16.4937C49.0601 16.4937 50.0644 16.7672 51.0131 17.3142L73.3207 30.1538C74.2694 30.7008 75.0087 31.4316 75.5386 32.3462C76.0685 33.2607 76.3335 34.2649 76.3335 35.3589V60.6409C76.3335 61.7349 76.0685 62.7392 75.5386 63.6537C75.0087 64.5682 74.2694 65.299 73.3207 65.846L51.0131 78.6857C50.0644 79.2327 49.0601 79.5062 48.0002 79.5062C46.9404 79.5062 45.9361 79.2327 44.9874 78.6857ZM60.8527 37.6667L68.5837 33.2307L48.5131 21.6217C48.3421 21.5149 48.1712 21.4615 48.0002 21.4615C47.8293 21.4615 47.6584 21.5149 47.4874 21.6217L40.2502 25.7884L60.8527 37.6667ZM48.0002 45.1282L55.7503 40.641L35.1669 28.7435L27.4168 33.2307L48.0002 45.1282Z" fill="#27272A"/>
</svg>
