<svg width="96" height="96" viewBox="0 0 96 96" fill="none" xmlns="http://www.w3.org/2000/svg">
<rect width="96" height="96" fill="white"/>
<path d="M47.9999 46.9742C44.7916 46.9742 42.0451 45.8319 39.7604 43.5472C37.4757 41.2625 36.3333 38.516 36.3333 35.3077C36.3333 32.0994 37.4757 29.3529 39.7604 27.0682C42.0451 24.7835 44.7916 23.6411 47.9999 23.6411C51.2082 23.6411 53.9547 24.7835 56.2394 27.0682C58.5241 29.3529 59.6665 32.0994 59.6665 35.3077C59.6665 38.516 58.5241 41.2625 56.2394 43.5472C53.9547 45.8319 51.2082 46.9742 47.9999 46.9742ZM23 72.3588V64.9486C23 63.3162 23.4434 61.8045 24.3302 60.4135C25.2169 59.0224 26.4017 57.953 27.8846 57.2051C31.1795 55.5897 34.5032 54.3782 37.8557 53.5705C41.2083 52.7629 44.5897 52.359 47.9999 52.359C51.4101 52.359 54.7915 52.7629 58.1441 53.5705C61.4966 54.3782 64.8204 55.5897 68.1152 57.2051C69.5981 57.953 70.7829 59.0224 71.6697 60.4135C72.5564 61.8045 72.9998 63.3162 72.9998 64.9486V72.3588H23ZM27.9999 67.3589H67.9999V64.9486C67.9999 64.2734 67.8044 63.6484 67.4133 63.0736C67.0223 62.4988 66.4914 62.0298 65.8204 61.6665C62.9486 60.252 60.0204 59.1805 57.0356 58.4518C54.0508 57.7232 51.0389 57.3589 47.9999 57.3589C44.9609 57.3589 41.949 57.7232 38.9642 58.4518C35.9795 59.1805 33.0512 60.252 30.1794 61.6665C29.5085 62.0298 28.9775 62.4988 28.5865 63.0736C28.1954 63.6484 27.9999 64.2734 27.9999 64.9486V67.3589ZM47.9999 41.9744C49.8333 41.9744 51.4027 41.3216 52.7083 40.016C54.0138 38.7105 54.6666 37.141 54.6666 35.3077C54.6666 33.4744 54.0138 31.9049 52.7083 30.5994C51.4027 29.2938 49.8333 28.641 47.9999 28.641C46.1666 28.641 44.5971 29.2938 43.2916 30.5994C41.986 31.9049 41.3333 33.4744 41.3333 35.3077C41.3333 37.141 41.986 38.7105 43.2916 40.016C44.5971 41.3216 46.1666 41.9744 47.9999 41.9744Z" fill="#27272A"/>
</svg>
