<svg width="96" height="96" viewBox="0 0 96 96" fill="none" xmlns="http://www.w3.org/2000/svg">
<rect width="96" height="96" fill="white"/>
<path d="M33.6414 76.3333V71.3333H45.5003V59.9102C42.6713 59.3418 40.1713 58.1516 38.0003 56.3397C35.8294 54.5277 34.2866 52.2691 33.3721 49.564C29.526 49.1067 26.2803 47.4743 23.635 44.6666C20.9897 41.8589 19.667 38.5256 19.667 34.6667V31.3333C19.667 29.9701 20.1595 28.796 21.1446 27.811C22.1296 26.8259 23.3037 26.3334 24.6669 26.3334H32.4234V19.6667H63.5771V26.3334H71.3336C72.6968 26.3334 73.8709 26.8259 74.8559 27.811C75.841 28.796 76.3335 29.9701 76.3335 31.3333V34.6667C76.3335 38.5256 75.0108 41.8589 72.3655 44.6666C69.7202 47.4743 66.4745 49.1067 62.6284 49.564C61.7139 52.2691 60.1711 54.5277 58.0002 56.3397C55.8292 58.1516 53.3292 59.3418 50.5002 59.9102V71.3333H62.3591V76.3333H33.6414ZM32.4234 44.1923V31.3333H24.6669V34.6667C24.6669 36.9914 25.3955 39.0331 26.8528 40.7917C28.3101 42.5502 30.167 43.6838 32.4234 44.1923ZM48.0002 55.1154C50.9276 55.1154 53.4116 54.0951 55.4522 52.0545C57.4928 50.0139 58.5131 47.5299 58.5131 44.6026V24.6667H37.4874V44.6026C37.4874 47.5299 38.5077 50.0139 40.5483 52.0545C42.5889 54.0951 45.0729 55.1154 48.0002 55.1154ZM63.5771 44.1923C65.8335 43.6838 67.6904 42.5502 69.1477 40.7917C70.6049 39.0331 71.3336 36.9914 71.3336 34.6667V31.3333H63.5771V44.1923Z" fill="#27272A"/>
</svg>
