<svg width="64" height="64" viewBox="0 0 64 64" fill="none" xmlns="http://www.w3.org/2000/svg">
<g id="lightbulb_FILL0_wght300_GRAD0_opsz24">
<path id="Vector" d="M32.0001 57.5384C30.6531 57.5384 29.4916 57.0718 28.5155 56.1384C27.5394 55.2051 27.0087 54.0649 26.9232 52.7179H37.077C36.9915 54.0649 36.4607 55.2051 35.4847 56.1384C34.5086 57.0718 33.3471 57.5384 32.0001 57.5384ZM22.0002 49.0256V45.0256H42V49.0256H22.0002ZM22.4104 41.3333C19.6172 39.5965 17.4062 37.3273 15.7771 34.5256C14.148 31.7239 13.3335 28.6598 13.3335 25.3334C13.3335 20.1368 15.1455 15.7266 18.7694 12.1026C22.3933 8.47871 26.8036 6.66675 32.0001 6.66675C37.1966 6.66675 41.6069 8.47871 45.2308 12.1026C48.8547 15.7266 50.6667 20.1368 50.6667 25.3334C50.6667 28.6598 49.8522 31.7239 48.2231 34.5256C46.594 37.3273 44.3829 39.5965 41.5898 41.3333H22.4104ZM23.6001 37.3334H40.4001C42.4001 35.9111 43.9445 34.1556 45.0334 32.0667C46.1223 29.9778 46.6668 27.7334 46.6668 25.3334C46.6668 21.2445 45.2445 17.7778 42.4001 14.9333C39.5556 12.0889 36.089 10.6667 32.0001 10.6667C27.9112 10.6667 24.4445 12.0889 21.6001 14.9333C18.7557 17.7778 17.3334 21.2445 17.3334 25.3334C17.3334 27.7334 17.8779 29.9778 18.9668 32.0667C20.0557 34.1556 21.6001 35.9111 23.6001 37.3334Z" fill="white"/>
</g>
</svg>
