<svg width="64" height="64" viewBox="0 0 64 64" fill="none" xmlns="http://www.w3.org/2000/svg">
<g id="science_FILL0_wght300_GRAD0_opsz24">
<path id="Vector" d="M13.3335 54.6667C11.6326 54.6667 10.4237 53.9077 9.70666 52.3898C8.9896 50.8719 9.16269 49.46 10.2259 48.154L25.3336 29.795V13.3334H22.1541C21.5875 13.3334 21.1125 13.1417 20.7291 12.7582C20.3458 12.3747 20.1541 11.8995 20.1541 11.3326C20.1541 10.7657 20.3458 10.2908 20.7291 9.9079C21.1125 9.52496 21.5875 9.3335 22.1541 9.3335H41.8463C42.4129 9.3335 42.8879 9.52525 43.2713 9.90876C43.6546 10.2923 43.8463 10.7675 43.8463 11.3344C43.8463 11.9013 43.6546 12.3762 43.2713 12.7591C42.8879 13.142 42.4129 13.3334 41.8463 13.3334H38.6668V29.795L53.7745 48.154C54.8377 49.46 55.0108 50.8719 54.2937 52.3898C53.5767 53.9077 52.3678 54.6667 50.6669 54.6667H13.3335ZM13.3335 50.6668H50.6669L34.6669 31.2001V13.3334H29.3335V31.2001L13.3335 50.6668Z" fill="white"/>
</g>
</svg>
