<svg width="303" height="64" viewBox="0 0 303 64" fill="none" xmlns="http://www.w3.org/2000/svg">
<path d="M181.549 39.118V31.024H172.459V28.364H181.549V22.52H184.504V49.784H181.549V42.421C179.123 43.921 176.504 45.342 173.692 46.687L171.971 44.496C175.563 42.781 178.756 40.99 181.549 39.118ZM191.387 31.638C194.981 29.378 197.795 27.333 199.828 25.501L201.744 27.547C199.125 29.924 195.672 32.378 191.387 34.91V45.548C191.387 46.192 191.463 46.611 191.614 46.804C191.919 47.136 192.46 47.301 193.237 47.301H196.876C197.827 47.282 198.478 47.038 198.823 46.572C199.212 45.889 199.571 44.088 199.895 41.165L202.817 41.837C202.665 44.525 202.448 46.368 202.169 47.36C201.974 47.964 201.702 48.451 201.355 48.821C200.837 49.347 200.371 49.669 199.96 49.786C199.507 49.903 198.79 49.962 197.815 49.962H191.973C191.127 49.941 190.434 49.775 189.895 49.464C188.856 48.782 188.368 47.623 188.432 45.987V22.2H191.387V31.638Z" fill="black"/>
<path d="M235.221 48.733C235.221 49.2 234.961 49.433 234.442 49.433H207.038C206.54 49.433 206.292 49.2 206.292 48.733V23.835C206.313 23.388 206.562 23.164 207.038 23.164H234.442C234.962 23.184 235.221 23.408 235.221 23.835V48.733ZM232.232 25.707H209.244C209.158 25.707 209.115 25.746 209.115 25.823V46.747C209.115 46.844 209.158 46.893 209.244 46.893H232.232C232.341 46.873 232.394 46.825 232.394 46.747V25.822C232.373 25.745 232.32 25.707 232.232 25.707ZM228.596 42.802C228.596 43.054 228.455 43.181 228.176 43.181H213.303C213.043 43.181 212.914 43.054 212.914 42.802V29.651C212.914 29.417 213.043 29.3 213.303 29.3H228.176C228.455 29.3 228.596 29.417 228.596 29.651V42.802ZM225.641 31.725H215.838C215.75 31.725 215.717 31.766 215.738 31.843V40.61C215.717 40.688 215.75 40.736 215.838 40.756H225.641C225.729 40.735 225.772 40.688 225.772 40.61V31.843C225.771 31.766 225.729 31.725 225.641 31.725Z" fill="black"/>
<path d="M243.564 34.501C242.785 35.748 241.996 36.84 241.195 37.774L238.435 36.605C242.07 32.242 244.376 27.508 245.351 22.404L248.24 22.93C247.677 25.151 247.06 27.138 246.39 28.891V49.902H243.564V34.501ZM255.027 36.371V45.431C255.027 46.074 255.101 46.494 255.254 46.688C255.557 47.02 256.098 47.186 256.877 47.186H263.242C264.193 47.165 264.844 46.922 265.189 46.455C265.556 45.929 265.752 44.195 265.773 41.252L268.759 41.751C268.782 45.606 268.435 47.926 267.722 48.705C267.202 49.23 266.736 49.553 266.326 49.669C265.871 49.786 265.156 49.845 264.181 49.845H255.611C254.767 49.824 254.074 49.66 253.533 49.348C252.494 48.666 252.008 47.507 252.072 45.87V22.433H255.027V33.537C259.226 31.823 262.882 29.436 266.002 26.377L268.111 28.248C263.674 32.146 259.313 34.854 255.027 36.371Z" fill="black"/>
<path d="M297.723 32.397V31.2H292.852V29.126H297.723V28.16H292.852V26.086H297.723V25.151C297.723 24.976 297.614 24.888 297.399 24.888H293.016V22.813H299.672C300.082 22.813 300.289 22.99 300.289 23.34V32.398H300.516L302.854 33.451C302.768 35.069 302.334 36.986 301.555 39.208L298.991 38.506C299.532 36.694 299.802 35.545 299.802 35.059C299.802 34.826 299.693 34.707 299.478 34.707H275.16C274.986 34.726 274.898 34.805 274.898 34.94V38.74H272.205V32.837C272.205 32.544 272.367 32.398 272.691 32.398H274.218V23.369C274.218 22.979 274.456 22.794 274.931 22.813C277.376 22.853 279.64 22.657 281.716 22.229L282.724 24.392C280.97 24.763 279.023 24.948 276.88 24.948C276.792 24.968 276.761 25.045 276.782 25.182V26.087H281.458V28.161H276.782V29.243H281.587V31.318H276.782V32.399H290.061C289.389 31.913 288.653 31.425 287.854 30.938C285.624 31.776 284.249 32.254 283.729 32.37L282.69 30.442C283.729 30.228 284.682 29.965 285.547 29.653C284.899 29.283 284.443 29.029 284.184 28.893L285.418 27.286C284.811 27.5 284.27 27.676 283.795 27.812L282.658 25.942C283.676 25.65 284.584 25.329 285.385 24.978C284.584 24.569 284.022 24.306 283.697 24.189L284.867 22.406C285.406 22.658 286.338 23.117 287.658 23.78C288.328 23.292 289 22.777 289.67 22.23L291.229 23.75C290.709 24.14 290.223 24.51 289.768 24.86C290.354 25.152 290.905 25.454 291.424 25.767L290.125 27.461H290.094L291.326 28.864C290.828 29.196 290.353 29.507 289.898 29.799C290.503 30.15 291.068 30.51 291.587 30.881L290.189 32.4H297.723V32.397ZM288.047 44.351H273.633V41.924H286.619C286.121 41.263 285.57 40.639 284.963 40.054H286.49H286.521L291.132 38.214H279.183V35.903H294.281L296.295 38.534L289.379 41.31C289.51 41.524 289.649 41.729 289.801 41.923H301.069V44.35H291.036C291.122 44.583 291.198 44.827 291.263 45.079C291.544 46.93 291.089 48.323 289.9 49.259C288.861 49.998 287.615 50.359 286.166 50.34C284.672 50.301 282.973 49.891 281.068 49.112L281.554 46.627C283.329 47.544 284.943 47.973 286.392 47.914C287.367 47.719 287.984 47.35 288.244 46.803C288.502 46.22 288.438 45.401 288.047 44.351ZM285.516 27.254C285.971 27.488 286.748 27.927 287.854 28.569C288.502 28.179 289.163 27.752 289.834 27.284C289.184 26.894 288.502 26.515 287.787 26.144C287.463 26.3 286.705 26.67 285.516 27.254Z" fill="black"/>
<path d="M52.855 21.297V21.287H47.546C46.195 19.31 44.486 17.596 42.514 16.241V6.874H42.51C42.465 3.293 39.558 0.408997 35.977 0.408997C34.328 0.408997 32.822 1.022 31.674 2.032C30.522 1.022 29.016 0.408997 27.366 0.408997C23.784 0.408997 20.881 3.293 20.834 6.874V16.241C18.863 17.59 17.162 19.298 15.813 21.269H6.452V21.272C2.881 21.319 0 24.232 0 27.818C0 29.473 0.614 30.979 1.622 32.134C0.614 33.287 0 34.796 0 36.446C0 40.036 2.881 42.951 6.453 42.992V42.995H15.814C17.162 44.965 18.863 46.677 20.835 48.024V57.397C20.882 60.974 23.786 63.862 27.367 63.862C29.017 63.862 30.523 63.247 31.675 62.237C32.823 63.247 34.329 63.862 35.978 63.862C39.56 63.862 42.466 60.974 42.511 57.397H42.516V48.024C44.485 46.676 46.185 44.967 47.533 42.995H52.856V42.986C58.681 42.804 63.345 38.02 63.345 32.143C63.345 26.264 58.68 21.476 52.855 21.297ZM6.453 38.542C5.307 38.532 4.38 37.601 4.38 36.446C4.38 35.338 5.246 34.431 6.338 34.359C6.383 34.359 6.429 34.363 6.478 34.363V34.37H12.592C12.755 35.814 13.083 37.209 13.55 38.542H6.453ZM12.593 29.9H6.479V29.905C6.432 29.905 6.393 29.908 6.349 29.908C5.252 29.843 4.38 28.934 4.38 27.818C4.38 26.668 5.307 25.736 6.453 25.723H13.551C13.084 27.057 12.756 28.454 12.593 29.9ZM43.053 22.204H36.496L33.903 25.9V17.17C37.536 17.71 40.747 19.551 43.053 22.204ZM35.977 4.798C37.127 4.798 38.058 5.723 38.069 6.874V13.977C36.736 13.509 35.345 13.183 33.902 13.017V6.896H33.9C33.898 6.855 33.897 6.812 33.897 6.77C33.959 5.669 34.866 4.798 35.977 4.798ZM25.277 6.874C25.288 5.723 26.217 4.798 27.366 4.798C28.476 4.798 29.379 5.664 29.449 6.756C29.449 6.803 29.447 6.85 29.447 6.895H29.443V13.016C27.999 13.183 26.605 13.508 25.277 13.979V6.874ZM29.443 17.17V25.896L26.847 22.204H20.293C22.596 19.554 25.806 17.713 29.443 17.17ZM19.961 22.605L25.9 29.9H16.738C17.143 27.157 18.291 24.66 19.961 22.605ZM16.738 34.37H26.129L20.072 41.802C18.34 39.723 17.151 37.174 16.738 34.37ZM20.293 42.066H27.074L29.443 38.613V47.095C25.808 46.556 22.597 44.716 20.293 42.066ZM27.366 59.472C26.217 59.472 25.288 58.544 25.277 57.398V50.288C26.604 50.76 27.999 51.085 29.443 51.253V57.373H29.447C29.447 57.419 29.449 57.466 29.449 57.514C29.379 58.604 28.477 59.472 27.366 59.472ZM38.069 57.397C38.058 58.543 37.127 59.471 35.977 59.471C34.866 59.471 33.959 58.6 33.896 57.501C33.896 57.455 33.897 57.411 33.899 57.371H33.902V51.251C35.345 51.085 36.735 50.758 38.069 50.288V57.397ZM33.903 47.096V38.614L36.273 42.067H43.053C40.747 44.717 37.536 46.557 33.903 47.096ZM43.273 41.802L37.217 34.37H46.606C46.19 37.174 45.003 39.723 43.273 41.802ZM37.444 29.9L43.386 22.606C45.052 24.66 46.201 27.159 46.607 29.9H37.444ZM52.916 38.569C52.889 38.569 52.86 38.566 52.834 38.566V38.583H49.78C50.494 36.565 50.883 34.395 50.883 32.133C50.883 29.877 50.499 27.711 49.787 25.702H52.834V25.721C52.86 25.721 52.888 25.713 52.916 25.713C56.458 25.713 59.331 28.592 59.331 32.143C59.33 35.691 56.457 38.569 52.916 38.569Z" fill="#D80C18"/>
<path d="M105.449 21.634L102.518 26.428L99.59 21.634H94.23L99.84 30.809L94.328 39.834H99.684L102.517 35.196L105.351 39.834H110.712L105.2 30.809L110.808 21.634H105.449ZM160.85 28.193V27.992H160.842C160.732 24.406 157.789 21.529 154.174 21.529C150.563 21.529 147.617 24.406 147.51 27.992H147.506V28.193C147.506 28.199 147.506 28.2 147.506 28.2C147.506 28.208 147.506 28.21 147.506 28.214V39.856H152.037V28.168H152.045C152.045 28.158 152.04 28.152 152.04 28.142C152.04 26.961 152.998 26.001 154.174 26.001C155.354 26.001 156.313 26.961 156.313 28.142C156.313 28.152 156.313 28.158 156.313 28.168H156.317V39.855H160.85V28.214C160.85 28.211 160.85 28.208 160.85 28.2C160.85 28.2 160.85 28.199 160.85 28.193ZM86.347 21.53C84.664 21.53 83.116 22.153 81.944 23.185C80.769 22.152 79.232 21.53 77.547 21.53C73.889 21.53 70.922 24.471 70.879 28.119H70.875V39.856H75.413V28.119C75.424 26.951 76.375 26.002 77.547 26.002C78.684 26.002 79.601 26.889 79.677 28C79.676 28.053 79.672 28.097 79.672 28.146H79.669V39.856H84.222V28.146H84.219C84.219 28.101 84.214 28.06 84.214 28.02C84.28 26.897 85.205 26.002 86.347 26.002C87.517 26.002 88.472 26.951 88.48 28.119H88.478V39.856H93.018V28.119C92.973 24.471 90.003 21.53 86.347 21.53ZM120.983 21.725V21.72H116.498V21.728H112.239V39.855H116.754V39.85H120.863V39.856C120.874 39.856 120.883 39.856 120.895 39.856C123.905 39.856 126.549 37.413 126.549 34.403C126.549 33.012 125.99 31.747 125.093 30.79C125.99 29.829 126.549 28.562 126.549 27.178C126.549 24.197 123.955 21.773 120.983 21.725ZM120.922 32.649V32.654C120.93 32.654 120.936 32.654 120.942 32.654C121.902 32.654 122.488 33.436 122.488 34.403C122.488 35.369 121.902 36.151 120.942 36.151C120.936 36.151 120.93 36.147 120.922 36.147V36.151H116.754V25.427H120.922V25.432C120.93 25.432 120.936 25.432 120.942 25.432C121.902 25.432 122.488 26.213 122.488 27.178C122.488 28.146 121.902 28.927 120.942 28.927C120.936 28.927 120.93 28.923 120.922 28.923V28.941H117.908V32.65H120.922V32.649ZM136.841 21.468C131.698 21.468 127.527 25.639 127.527 30.78C127.527 35.926 131.698 40.093 136.841 40.093C141.981 40.093 146.15 35.926 146.15 30.78C146.15 25.64 141.981 21.468 136.841 21.468ZM136.841 35.788C134.072 35.788 131.834 33.549 131.834 30.78C131.834 28.019 134.072 25.775 136.841 25.775C139.601 25.775 141.843 28.019 141.843 30.78C141.844 33.549 139.602 35.788 136.841 35.788Z" fill="#D80C18"/>
<path d="M73.422 43.803H75.084L78.262 49.763H76.519L75.835 48.345H72.596L71.932 49.763H70.269L73.422 43.803ZM74.192 44.986L73.103 47.28H75.323L74.192 44.986Z" fill="#595757"/>
<path d="M83.701 49.763H80.928C80.09 49.763 79.436 49.566 78.967 49.171C78.496 48.776 78.262 48.227 78.262 47.521C78.262 47.232 78.311 46.965 78.409 46.723C78.507 46.483 78.655 46.261 78.855 46.061C79.092 45.821 79.376 45.648 79.709 45.543C80.041 45.439 80.48 45.388 81.024 45.388H82.261V43.803H83.7L83.701 49.763ZM82.262 48.825V46.332H81.389C80.805 46.332 80.39 46.431 80.145 46.626C79.9 46.822 79.778 47.147 79.778 47.605C79.778 48.049 79.889 48.364 80.115 48.548C80.339 48.734 80.725 48.825 81.273 48.825H82.262Z" fill="#595757"/>
<path d="M84.958 43.803H86.393V45.388H87.674C88.479 45.388 89.061 45.514 89.422 45.766C89.78 46.02 89.961 46.427 89.961 46.989V49.763H88.507V47.123C88.507 46.823 88.438 46.619 88.301 46.512C88.165 46.403 87.912 46.348 87.544 46.348H86.394V49.763H84.959L84.958 43.803Z" fill="#595757"/>
<path d="M93.6461 49.763C92.7401 49.763 92.0541 49.577 91.5901 49.209C91.1261 48.84 90.8931 48.296 90.8931 47.576C90.8931 46.857 91.1271 46.313 91.5931 45.942C92.0601 45.573 92.7431 45.387 93.6471 45.387H95.7551V46.3H93.8441C93.3211 46.3 92.9681 46.359 92.7871 46.477C92.6061 46.596 92.5091 46.812 92.4951 47.123H95.7541V48.034H92.4951C92.5091 48.348 92.5981 48.563 92.7661 48.679C92.9341 48.792 93.2891 48.85 93.8331 48.85H95.7541V49.763H93.6461Z" fill="#595757"/>
<path d="M96.591 48.8501H99.636C99.907 48.8501 100.103 48.8171 100.227 48.7491C100.351 48.6811 100.412 48.5731 100.412 48.4251C100.412 48.2751 100.349 48.1681 100.224 48.0981C100.099 48.0291 99.903 47.9941 99.636 47.9941H98.389C97.649 47.9941 97.149 47.9041 96.889 47.7231C96.628 47.5411 96.498 47.2211 96.498 46.7591C96.498 46.2881 96.655 45.9421 96.969 45.7201C97.283 45.4981 97.769 45.3881 98.428 45.3881H101.53V46.3011H98.981C98.565 46.3011 98.294 46.3291 98.17 46.3871C98.045 46.4451 97.982 46.5491 97.982 46.6981C97.982 46.8331 98.037 46.9311 98.148 46.9951C98.257 47.0601 98.431 47.0921 98.668 47.0921H99.975C100.573 47.0921 101.03 47.2031 101.344 47.4271C101.659 47.6501 101.816 47.9711 101.816 48.3931C101.816 48.7981 101.676 49.1291 101.399 49.3831C101.119 49.6361 100.761 49.7641 100.321 49.7641H96.592L96.591 48.8501Z" fill="#595757"/>
<path d="M104.361 44.889H102.844V43.803H104.361V44.889ZM104.361 49.763H102.844V45.388H104.361V49.763Z" fill="#595757"/>
<path d="M104.993 45.3881H106.616L108.131 48.4941L109.738 45.3881H111.294L108.866 49.7631H107.31L104.993 45.3881Z" fill="#595757"/>
<path d="M114.375 49.763C113.47 49.763 112.784 49.577 112.319 49.209C111.855 48.84 111.622 48.296 111.622 47.576C111.622 46.857 111.856 46.313 112.321 45.942C112.788 45.573 113.472 45.387 114.375 45.387H116.483V46.3H114.572C114.049 46.3 113.696 46.359 113.516 46.477C113.335 46.596 113.238 46.812 113.224 47.123H116.483V48.034H113.224C113.238 48.348 113.327 48.563 113.495 48.679C113.663 48.792 114.018 48.85 114.562 48.85H116.483V49.763H114.375Z" fill="#595757"/>
<path d="M117.32 48.8501H120.366C120.637 48.8501 120.833 48.8171 120.956 48.7491C121.08 48.6811 121.141 48.5731 121.141 48.4251C121.141 48.2751 121.078 48.1681 120.953 48.0981C120.828 48.0291 120.632 47.9941 120.365 47.9941H119.118C118.378 47.9941 117.878 47.9041 117.618 47.7231C117.357 47.5411 117.227 47.2211 117.227 46.7591C117.227 46.2881 117.384 45.9421 117.699 45.7201C118.012 45.4981 118.499 45.3881 119.158 45.3881H122.26V46.3011H119.71C119.295 46.3011 119.024 46.3291 118.899 46.3871C118.774 46.4451 118.711 46.5491 118.711 46.6981C118.711 46.8331 118.766 46.9311 118.877 46.9951C118.986 47.0601 119.16 47.0921 119.397 47.0921H120.704C121.302 47.0921 121.759 47.2031 122.073 47.4271C122.387 47.6501 122.544 47.9711 122.544 48.3931C122.544 48.7981 122.404 49.1291 122.127 49.3831C121.848 49.6361 121.489 49.7641 121.049 49.7641H117.32V48.8501Z" fill="#595757"/>
<path d="M130.81 44.84C130.243 44.84 129.815 44.954 129.528 45.181C129.238 45.408 129.08 45.756 129.049 46.223L133.382 46.227V47.265H129.039C129.043 47.785 129.18 48.157 129.452 48.385C129.723 48.611 130.176 48.725 130.81 48.725H133.382V49.763H130.735C130.151 49.763 129.692 49.723 129.358 49.643C129.024 49.564 128.709 49.429 128.416 49.24C128.034 48.997 127.747 48.68 127.558 48.29C127.367 47.898 127.271 47.433 127.271 46.889C127.271 45.834 127.557 45.057 128.127 44.555C128.698 44.054 129.583 43.804 130.781 43.804H133.383V44.841L130.81 44.84Z" fill="#595757"/>
<path d="M136.028 47.5761L134.007 45.3881H135.679L136.849 46.7061L138.056 45.3881H139.713L137.691 47.6051L139.683 49.7631H138.006L136.85 48.4941L135.69 49.7631H134.007L136.028 47.5761Z" fill="#595757"/>
<path d="M140.361 45.3881H143.143C143.981 45.3881 144.635 45.5851 145.104 45.9801C145.575 46.3751 145.809 46.9241 145.809 47.6301C145.809 47.9191 145.76 48.1851 145.663 48.4261C145.564 48.6681 145.415 48.8891 145.216 49.0901C144.98 49.3301 144.696 49.5031 144.364 49.6081C144.033 49.7121 143.595 49.7631 143.047 49.7631H141.805V51.3481H140.361V45.3881ZM141.806 46.3321V48.8251H142.688C143.273 48.8251 143.687 48.7271 143.931 48.5301C144.174 48.3331 144.295 48.0041 144.295 47.5451C144.295 47.1021 144.183 46.7881 143.961 46.6061C143.738 46.4251 143.352 46.3331 142.801 46.3331L141.806 46.3321Z" fill="#595757"/>
<path d="M149.129 49.763C148.224 49.763 147.538 49.577 147.073 49.209C146.609 48.84 146.376 48.296 146.376 47.576C146.376 46.857 146.61 46.313 147.076 45.942C147.542 45.573 148.226 45.387 149.129 45.387H151.237V46.3H149.326C148.803 46.3 148.45 46.359 148.27 46.477C148.089 46.596 147.992 46.812 147.978 47.123H151.237V48.034H147.978C147.992 48.348 148.081 48.563 148.249 48.679C148.416 48.792 148.772 48.85 149.316 48.85H151.237V49.763H149.129Z" fill="#595757"/>
<path d="M152.16 45.3881H154.588C155.156 45.3881 155.554 45.4701 155.781 45.6331C156.01 45.7971 156.123 46.0831 156.123 46.4901V47.2201H154.746V46.6561C154.746 46.4871 154.707 46.3731 154.631 46.3131C154.555 46.2551 154.382 46.2261 154.111 46.2261H153.605V49.7621H152.16V45.3881Z" fill="#595757"/>
<path d="M156.498 45.388H157.518V43.803H158.963V45.388H160.488V46.259H158.963V48.027C158.963 48.352 159.031 48.577 159.169 48.703C159.308 48.828 159.551 48.891 159.895 48.891H160.489V49.763H159.17C158.638 49.763 158.228 49.645 157.944 49.408C157.661 49.172 157.518 48.834 157.518 48.392V46.259H156.498V45.388Z" fill="#595757"/>
</svg>
