<svg xmlns="http://www.w3.org/2000/svg" width="48" height="49" viewBox="0 0 48 49" fill="none">
  <path d="M24 39C22.04 39 20.2083 38.6325 18.505 37.8975C16.8017 37.1625 15.32 36.165 14.06 34.905C12.8 33.645 11.8083 32.1575 11.085 30.4425C10.3617 28.7275 10 26.89 10 24.93C10 22.97 10.3617 21.1442 11.085 19.4525C11.8083 17.7608 12.8 16.285 14.06 15.025C15.32 13.765 16.8017 12.7792 18.505 12.0675C20.2083 11.3558 22.04 11 24 11C25.96 11 27.7917 11.3558 29.495 12.0675C31.1983 12.7792 32.68 13.765 33.94 15.025C35.2 16.285 36.1917 17.7608 36.915 19.4525C37.6383 21.1442 38 22.97 38 24.93C38 26.89 37.6383 28.7275 36.915 30.4425C36.1917 32.1575 35.2 33.645 33.94 34.905C32.68 36.165 31.1983 37.1625 29.495 37.8975C27.7917 38.6325 25.96 39 24 39ZM24 36.97C24.8167 36.13 25.4992 35.1675 26.0475 34.0825C26.5958 32.9975 27.045 31.7083 27.395 30.215H20.64C20.9667 31.615 21.4042 32.875 21.9525 33.995C22.5008 35.115 23.1833 36.1067 24 36.97ZM21.025 36.55C20.4417 35.6633 19.94 34.7067 19.52 33.68C19.1 32.6533 18.75 31.4983 18.47 30.215H13.22C14.1067 31.8717 15.1333 33.1725 16.3 34.1175C17.4667 35.0625 19.0417 35.8733 21.025 36.55ZM27.01 36.515C28.69 35.9783 30.2008 35.1733 31.5425 34.1C32.8842 33.0267 33.9633 31.7317 34.78 30.215H29.565C29.2617 31.475 28.9058 32.6183 28.4975 33.645C28.0892 34.6717 27.5933 35.6283 27.01 36.515ZM12.52 28.115H18.085C18.015 27.485 17.9742 26.9192 17.9625 26.4175C17.9508 25.9158 17.945 25.42 17.945 24.93C17.945 24.3467 17.9567 23.8275 17.98 23.3725C18.0033 22.9175 18.05 22.41 18.12 21.85H12.52C12.3567 22.41 12.2458 22.9117 12.1875 23.355C12.1292 23.7983 12.1 24.3233 12.1 24.93C12.1 25.5367 12.1292 26.0792 12.1875 26.5575C12.2458 27.0358 12.3567 27.555 12.52 28.115ZM20.255 28.115H27.78C27.8733 27.3917 27.9317 26.8025 27.955 26.3475C27.9783 25.8925 27.99 25.42 27.99 24.93C27.99 24.4633 27.9783 24.0142 27.955 23.5825C27.9317 23.1508 27.8733 22.5733 27.78 21.85H20.255C20.1617 22.5733 20.1033 23.1508 20.08 23.5825C20.0567 24.0142 20.045 24.4633 20.045 24.93C20.045 25.42 20.0567 25.8925 20.08 26.3475C20.1033 26.8025 20.1617 27.3917 20.255 28.115ZM29.88 28.115H35.48C35.6433 27.555 35.7542 27.0358 35.8125 26.5575C35.8708 26.0792 35.9 25.5367 35.9 24.93C35.9 24.3233 35.8708 23.7983 35.8125 23.355C35.7542 22.9117 35.6433 22.41 35.48 21.85H29.915C29.985 22.6667 30.0317 23.2908 30.055 23.7225C30.0783 24.1542 30.09 24.5567 30.09 24.93C30.09 25.4433 30.0725 25.9275 30.0375 26.3825C30.0025 26.8375 29.95 27.415 29.88 28.115ZM29.53 19.75H34.78C34.01 18.14 32.9542 16.7983 31.6125 15.725C30.2708 14.6517 28.725 13.8933 26.975 13.45C27.5583 14.3133 28.0542 15.2467 28.4625 16.25C28.8708 17.2533 29.2267 18.42 29.53 19.75ZM20.64 19.75H27.43C27.1733 18.5133 26.7417 17.3175 26.135 16.1625C25.5283 15.0075 24.8167 13.9867 24 13.1C23.2533 13.73 22.6233 14.5583 22.11 15.585C21.5967 16.6117 21.1067 18 20.64 19.75ZM13.22 19.75H18.505C18.7617 18.49 19.0883 17.3642 19.485 16.3725C19.8817 15.3808 20.3833 14.4183 20.99 13.485C19.24 13.9283 17.7117 14.675 16.405 15.725C15.0983 16.775 14.0367 18.1167 13.22 19.75Z" fill="#71717A"/>
</svg>