<svg id="_?惜_1" xmlns="http://www.w3.org/2000/svg" viewBox="0 0 201.86 202.2">
  <path fill="#f0f0f1" stroke-width="0" d="m168.44,66.56v-.03h-16.92c-4.31-6.3-9.74-11.77-16.03-16.08v-29.85h-.01c-.15-11.4-9.41-20.6-20.83-20.6-5.24,0-10.05,1.96-13.71,5.17-3.67-3.21-8.47-5.17-13.73-5.17-11.42,0-20.67,9.2-20.82,20.6h0v29.85c-6.27,4.3-11.7,9.74-15.98,16.02h-29.84c-11.38.15-20.56,9.45-20.56,20.87,0,5.28,1.95,10.07,5.17,13.75-3.21,3.68-5.17,8.49-5.17,13.75,0,11.43,9.18,20.72,20.56,20.86h0s29.84.01,29.84.01c4.29,6.29,9.72,11.72,15.98,16.01v29.87h0c.15,11.4,9.4,20.6,20.82,20.6,5.26,0,10.06-1.96,13.73-5.18,3.66,3.22,8.46,5.18,13.71,5.18,11.42,0,20.67-9.19,20.83-20.6h.01v-29.87c6.27-4.29,11.69-9.73,15.99-16.01h16.97v-.03c18.56-.58,33.42-15.82,33.42-34.57s-14.86-33.98-33.42-34.55M20.56,121.51c-3.66-.03-6.6-3-6.6-6.67s2.76-6.42,6.23-6.65h.46v.02h19.48c.53,4.62,1.57,9.06,3.06,13.3h-22.63Zm19.57-27.54h-19.48c-.15.01-.28.03-.42.03-3.5-.2-6.27-3.11-6.27-6.66s2.94-6.63,6.6-6.67h0s22.63,0,22.63,0c-1.49,4.23-2.53,8.68-3.06,13.29Zm97.08-24.53h-20.9l-8.27,11.78v-27.82c11.59,1.72,21.81,7.59,29.16,16.04Zm-22.56-55.46c3.67,0,6.64,2.95,6.67,6.61v22.64c-4.24-1.48-8.68-2.53-13.28-3.06v-19.51h0c0-.13-.01-.26-.01-.4.2-3.5,3.09-6.28,6.63-6.28Zm-34.09,6.61c.04-3.66,3-6.61,6.66-6.61s6.41,2.75,6.63,6.23v.45h-.01v19.51c-4.6.52-9.05,1.57-13.28,3.06v-22.64Zm13.28,32.82v27.8l-8.27-11.77h-20.88c7.35-8.44,17.57-14.31,29.16-16.03Zm-30.22,17.3l18.93,23.25h-29.2c1.3-8.73,4.95-16.69,10.27-23.25Zm-10.27,37.49h29.92l-19.29,23.7c-5.52-6.63-9.3-14.75-10.63-23.7Zm11.33,24.52h21.61l7.55-10.99v27.03c-11.59-1.73-21.81-7.58-29.16-16.04Zm22.54,55.48c-3.66,0-6.62-2.96-6.66-6.61v-22.65c4.23,1.5,8.68,2.53,13.28,3.07v19.49h.01v.45c-.22,3.48-3.09,6.25-6.63,6.25Zm34.11-6.61c-.04,3.66-3,6.61-6.67,6.61s-6.43-2.77-6.63-6.28c0-.14.01-.28.01-.42h0v-19.49c4.59-.54,9.03-1.57,13.28-3.07v22.65Zm-13.28-32.82v-27.04l7.55,11h21.62c-7.35,8.46-17.58,14.32-29.16,16.04Zm29.86-16.87l-19.29-23.7h29.92c-1.33,8.95-5.11,17.07-10.63,23.7Zm-18.57-37.93l18.93-23.25c5.31,6.55,8.96,14.51,10.26,23.25h-29.2Zm49.3,27.62c-.09,0-.18-.01-.27-.01v.06h-9.72c2.27-6.43,3.51-13.36,3.51-20.55s-1.22-14.09-3.5-20.49h9.71v.05c.09,0,.18-.02.27-.02,11.28,0,20.44,9.18,20.44,20.48s-9.16,20.49-20.44,20.49Z"/></svg>