<?xml version="1.0" encoding="utf-8"?>
<!-- Generator: Adobe Illustrator 25.4.8, SVG Export Plug-In . SVG Version: 6.00 Build 0)  -->
<svg version="1.1" id="圖層_1" xmlns="http://www.w3.org/2000/svg" xmlns:xlink="http://www.w3.org/1999/xlink" x="0px" y="0px"
	 viewBox="0 0 160.9 64" style="enable-background:new 0 0 160.9 64;" xml:space="preserve">
<style type="text/css">
	.st0{fill:#D80C18;}
	.st1{fill:#595757;}
</style>
<path class="st0" d="M52.9,21.3L52.9,21.3h-5.3c-1.4-2-3.1-3.7-5-5V6.9l0,0c0-3.6-3-6.5-6.5-6.5c-1.6,0-3.2,0.6-4.3,1.6
	c-1.2-1-2.7-1.6-4.3-1.6c-3.6,0-6.5,2.9-6.5,6.5v9.4c-2,1.3-3.7,3.1-5,5H6.5l0,0c-3.6,0-6.5,3-6.5,6.5c0,1.7,0.6,3.2,1.6,4.3
	c-1,1.2-1.6,2.7-1.6,4.3C0,40,2.9,43,6.5,43l0,0h9.4c1.3,2,3,3.7,5,5v9.4c0,3.6,3,6.5,6.5,6.5c1.6,0,3.2-0.6,4.3-1.6
	c1.1,1,2.7,1.6,4.3,1.6c3.6,0,6.5-2.9,6.5-6.5l0,0V48c2-1.3,3.7-3.1,5-5h5.3l0,0c5.8-0.2,10.5-5,10.5-10.8
	C63.3,26.3,58.7,21.5,52.9,21.3z M6.5,38.5c-1.1,0-2.1-0.9-2.1-2.1c0-1.1,0.9-2,2-2.1h0.1l0,0h6.1c0.2,1.4,0.5,2.8,1,4.2
	C13.6,38.5,6.5,38.5,6.5,38.5z M12.6,29.9H6.5l0,0H6.4c-1.1-0.1-2-1-2-2.1c0-1.2,0.9-2.1,2.1-2.1h7.1C13.1,27.1,12.8,28.5,12.6,29.9
	z M43.1,22.2h-6.6l-2.6,3.7v-8.7C37.5,17.7,40.7,19.6,43.1,22.2z M36,4.8c1.1,0,2.1,0.9,2.1,2.1V14c-1.3-0.5-2.7-0.8-4.2-1V6.9l0,0
	V6.8C34,5.7,34.9,4.8,36,4.8z M25.3,6.9c0-1.2,0.9-2.1,2.1-2.1c1.1,0,2,0.9,2.1,2v0.1l0,0V13c-1.4,0.2-2.8,0.5-4.2,1V6.9z
	 M29.4,17.2v8.7l-2.6-3.7h-6.6C22.6,19.6,25.8,17.7,29.4,17.2z M20,22.6l5.9,7.3h-9.2C17.1,27.2,18.3,24.7,20,22.6z M16.7,34.4h9.4
	L20,41.8C18.3,39.7,17.2,37.2,16.7,34.4z M20.3,42.1h6.8l2.4-3.5v8.5C25.8,46.6,22.6,44.7,20.3,42.1z M27.4,59.5
	c-1.1,0-2.1-0.9-2.1-2.1v-7.1c1.3,0.5,2.7,0.8,4.2,1v6.1l0,0v0.1C29.4,58.6,28.5,59.5,27.4,59.5z M38.1,57.4c0,1.1-0.9,2.1-2.1,2.1
	c-1.1,0-2-0.9-2.1-2v-0.1l0,0v-6.1c1.4-0.2,2.8-0.5,4.2-1C38.1,50.3,38.1,57.4,38.1,57.4z M33.9,47.1v-8.5l2.4,3.5h6.8
	C40.7,44.7,37.5,46.6,33.9,47.1z M43.3,41.8l-6.1-7.4h9.4C46.2,37.2,45,39.7,43.3,41.8z M37.4,29.9l5.9-7.3c1.7,2.1,2.8,4.6,3.2,7.3
	C46.5,29.9,37.4,29.9,37.4,29.9z M52.9,38.6L52.9,38.6L52.9,38.6h-3.1c0.7-2,1.1-4.2,1.1-6.5s-0.4-4.4-1.1-6.4h3l0,0h0.1
	c3.5,0,6.4,2.9,6.4,6.4C59.3,35.7,56.5,38.6,52.9,38.6z"/>
<path class="st0" d="M105.4,21.6l-2.9,4.8l-2.9-4.8h-5.4l5.6,9.2l-5.5,9h5.4l2.8-4.6l2.8,4.6h5.4l-5.5-9l5.6-9.2
	C110.8,21.6,105.4,21.6,105.4,21.6z M160.9,28.2V28l0,0c-0.1-3.6-3.1-6.5-6.7-6.5c-3.6,0-6.6,2.9-6.7,6.5l0,0v0.2l0,0l0,0v11.6h4.5
	V28.2l0,0l0,0c0-1.2,1-2.1,2.1-2.1c1.2,0,2.1,1,2.1,2.1l0,0l0,0v11.7h4.5V28.2C160.9,28.2,160.9,28.2,160.9,28.2L160.9,28.2z
	 M86.3,21.5c-1.7,0-3.2,0.6-4.4,1.7c-1.2-1-2.7-1.7-4.4-1.7c-3.7,0-6.6,2.9-6.7,6.6l0,0v11.7h4.5V28.1c0-1.2,1-2.1,2.1-2.1
	s2.1,0.9,2.1,2c0,0.1,0,0.1,0,0.1l0,0v11.7h4.6V28.1l0,0V28c0.1-1.1,1-2,2.1-2c1.2,0,2.1,0.9,2.1,2.1l0,0v11.7H93V28.1
	C93,24.5,90,21.5,86.3,21.5z M121,21.7L121,21.7h-4.5l0,0h-4.3v18.1h4.5l0,0h4.1l0,0l0,0c3,0,5.7-2.4,5.7-5.5c0-1.4-0.6-2.7-1.5-3.6
	c0.9-1,1.5-2.2,1.5-3.6C126.5,24.2,124,21.8,121,21.7z M120.9,32.6L120.9,32.6C120.9,32.7,120.9,32.7,120.9,32.6
	c1,0,1.6,0.8,1.6,1.8s-0.6,1.7-1.5,1.7l0,0l0,0h-4.2V25.4h4.2l0,0l0,0c1,0,1.5,0.8,1.5,1.7c0,1-0.6,1.7-1.5,1.7l0,0l0,0h-3v3.7
	L120.9,32.6L120.9,32.6z M136.8,21.5c-5.1,0-9.3,4.2-9.3,9.3s4.2,9.3,9.3,9.3s9.3-4.2,9.3-9.3C146.1,25.6,142,21.5,136.8,21.5z
	 M136.8,35.8c-2.8,0-5-2.2-5-5s2.2-5,5-5s5,2.2,5,5C141.8,33.5,139.6,35.8,136.8,35.8z"/>
<path class="st1" d="M73.4,43.8h1.7l3.2,6h-1.7l-0.7-1.4h-3.2L72,49.8h-1.7L73.4,43.8z M74.2,45l-1.1,2.3h2.2L74.2,45z"/>
<path class="st1" d="M83.7,49.8h-2.8c-0.8,0-1.5-0.2-2-0.6c-0.5-0.4-0.7-0.9-0.7-1.7c0-0.3,0-0.6,0.1-0.8s0.2-0.5,0.4-0.7
	c0.2-0.2,0.5-0.4,0.9-0.5c0.3-0.1,0.8-0.2,1.3-0.2h1.2v-1.6h1.4L83.7,49.8z M82.3,48.8v-2.5h-0.9c-0.6,0-1,0.1-1.2,0.3
	s-0.4,0.5-0.4,1c0,0.4,0.1,0.8,0.3,0.9c0.2,0.2,0.6,0.3,1.2,0.3H82.3z"/>
<path class="st1" d="M85,43.8h1.4v1.6h1.3c0.8,0,1.4,0.1,1.7,0.4C89.8,46,90,46.4,90,47v2.8h-1.5v-2.6c0-0.3-0.1-0.5-0.2-0.6
	s-0.4-0.2-0.8-0.2h-1.2v3.4H85V43.8z"/>
<path class="st1" d="M93.6,49.8c-0.9,0-1.6-0.2-2.1-0.6c-0.5-0.4-0.7-0.9-0.7-1.6c0-0.7,0.2-1.3,0.7-1.6c0.5-0.4,1.2-0.6,2.1-0.6
	h2.1v0.9h-1.9c-0.5,0-0.9,0.1-1.1,0.2c-0.2,0.1-0.3,0.3-0.3,0.6h3.3V48h-3.3c0,0.3,0.1,0.5,0.3,0.6c0.2,0.1,0.5,0.2,1.1,0.2h1.9v0.9
	L93.6,49.8L93.6,49.8z"/>
<path class="st1" d="M96.6,48.9h3c0.3,0,0.5,0,0.6-0.1s0.2-0.2,0.2-0.3s-0.1-0.3-0.2-0.3c-0.1-0.1-0.3-0.1-0.6-0.1h-1.2
	c-0.7,0-1.2-0.1-1.5-0.3s-0.4-0.5-0.4-1s0.2-0.8,0.5-1s0.8-0.3,1.5-0.3h3.1v0.9H99c-0.4,0-0.7,0-0.8,0.1c-0.2-0.1-0.2,0-0.2,0.2
	c0,0.1,0.1,0.2,0.2,0.3s0.3,0.1,0.5,0.1h1.3c0.6,0,1.1,0.1,1.4,0.3s0.5,0.5,0.5,1c0,0.4-0.1,0.7-0.4,1s-0.6,0.4-1.1,0.4h-3.7
	L96.6,48.9z"/>
<path class="st1" d="M104.4,44.9h-1.5v-1.1h1.5V44.9z M104.4,49.8h-1.5v-4.4h1.5V49.8z"/>
<path class="st1" d="M105,45.4h1.6l1.5,3.1l1.6-3.1h1.6l-2.4,4.4h-1.6L105,45.4z"/>
<path class="st1" d="M114.4,49.8c-0.9,0-1.6-0.2-2.1-0.6c-0.5-0.4-0.7-0.9-0.7-1.6c0-0.7,0.2-1.3,0.7-1.6c0.5-0.4,1.2-0.6,2.1-0.6
	h2.1v0.9h-1.9c-0.5,0-0.9,0.1-1.1,0.2c-0.2,0.1-0.3,0.3-0.3,0.6h3.3V48h-3.3c0,0.3,0.1,0.5,0.3,0.6c0.2,0.1,0.5,0.2,1.1,0.2h1.9v0.9
	L114.4,49.8L114.4,49.8z"/>
<path class="st1" d="M117.3,48.9h3c0.3,0,0.5,0,0.6-0.1s0.2-0.2,0.2-0.3s-0.1-0.3-0.2-0.3c-0.1-0.1-0.3-0.1-0.6-0.1h-1.2
	c-0.7,0-1.2-0.1-1.5-0.3s-0.4-0.5-0.4-1s0.2-0.8,0.5-1s0.8-0.3,1.5-0.3h3.1v0.9h-2.6c-0.4,0-0.7,0-0.8,0.1s-0.2,0.2-0.2,0.3
	s0.1,0.2,0.2,0.3s0.3,0.1,0.5,0.1h1.3c0.6,0,1.1,0.1,1.4,0.3s0.5,0.5,0.5,1c0,0.4-0.1,0.7-0.4,1s-0.6,0.4-1.1,0.4h-3.7v-1H117.3z"/>
<path class="st1" d="M130.8,44.8c-0.6,0-1,0.1-1.3,0.3s-0.4,0.6-0.5,1h4.3v1H129c0,0.5,0.1,0.9,0.4,1.1c0.3,0.2,0.7,0.3,1.4,0.3h2.6
	v1h-2.6c-0.6,0-1,0-1.4-0.1c-0.3-0.1-0.6-0.2-0.9-0.4c-0.4-0.2-0.7-0.6-0.9-1c-0.2-0.4-0.3-0.9-0.3-1.4c0-1.1,0.3-1.8,0.9-2.3
	c0.6-0.5,1.5-0.8,2.7-0.8h2.6v1L130.8,44.8z"/>
<path class="st1" d="M136,47.6l-2-2.2h1.7l1.2,1.3l1.2-1.3h1.7l-2,2.2l2,2.2H138l-1.2-1.3l-1.2,1.3H134L136,47.6z"/>
<path class="st1" d="M140.4,45.4h2.8c0.8,0,1.5,0.2,2,0.6c0.5,0.4,0.7,0.9,0.7,1.7c0,0.3,0,0.6-0.1,0.8s-0.2,0.5-0.4,0.7
	s-0.5,0.4-0.9,0.5c-0.3,0.1-0.8,0.2-1.3,0.2H142v1.6h-1.4v-6.1H140.4z M141.8,46.3v2.5h0.9c0.6,0,1-0.1,1.2-0.3s0.4-0.5,0.4-1
	c0-0.4-0.1-0.8-0.3-0.9c-0.2-0.2-0.6-0.3-1.2-0.3H141.8z"/>
<path class="st1" d="M149.1,49.8c-0.9,0-1.6-0.2-2.1-0.6c-0.5-0.4-0.7-0.9-0.7-1.6c0-0.7,0.2-1.3,0.7-1.6c0.5-0.4,1.1-0.6,2.1-0.6
	h2.1v0.9h-1.9c-0.5,0-0.9,0.1-1.1,0.2c-0.2,0.1-0.3,0.3-0.3,0.6h3.3V48H148c0,0.3,0.1,0.5,0.3,0.6s0.5,0.2,1.1,0.2h1.9v0.9
	L149.1,49.8L149.1,49.8z"/>
<path class="st1" d="M152.2,45.4h2.4c0.6,0,1,0.1,1.2,0.2c0.2,0.2,0.3,0.5,0.3,0.9v0.7h-1.4v-0.6c0-0.2,0-0.3-0.1-0.3
	c-0.1-0.1-0.2-0.1-0.5-0.1h-0.5v3.5h-1.4V45.4z"/>
<path class="st1" d="M156.5,45.4h1v-1.6h1.4v1.6h1.5v0.9H159V48c0,0.3,0.1,0.5,0.2,0.7c0.1,0.1,0.4,0.2,0.7,0.2h0.6v0.9h-1.3
	c-0.5,0-0.9-0.1-1.2-0.4c-0.3-0.2-0.4-0.6-0.4-1v-2.1h-1v-0.9H156.5z"/>
</svg>
